<?xml version="1.0" encoding="utf-8"?>
<!-- Generator: Adobe Illustrator 16.0.0, SVG Export Plug-In . SVG Version: 6.00 Build 0)  -->
<!DOCTYPE svg PUBLIC "-//W3C//DTD SVG 1.1//EN" "http://www.w3.org/Graphics/SVG/1.1/DTD/svg11.dtd">
<svg version="1.1" id="Layer_1" xmlns="http://www.w3.org/2000/svg" xmlns:xlink="http://www.w3.org/1999/xlink" x="0px" y="0px"
	 width="595.28px" height="841.89px" viewBox="0 0 595.28 841.89" enable-background="new 0 0 595.28 841.89" xml:space="preserve">
<g>
	<rect x="128.747" y="128.93" width="436.62" height="436.62"/>
	<g>
		<path fill="#FFFFFF" d="M565.366,558.05c-32.422,0-64.843,0-97.265,0c-64.117,0-128.235,0-192.353,0c-46.095,0-92.189,0-138.283,0
			c-2.906,0-5.813,0-8.719,0c2.5,2.5,5,5,7.5,7.5c0-32.422,0-64.843,0-97.265c0-64.117,0-128.235,0-192.353
			c0-46.095,0-92.189,0-138.283c0-2.906,0-5.813,0-8.719c-2.5,2.5-5,5-7.5,7.5c32.421,0,64.843,0,97.264,0
			c64.118,0,128.235,0,192.354,0c46.095,0,92.188,0,138.283,0c2.906,0,5.813,0,8.719,0c-2.5-2.5-5-5-7.5-7.5
			c0,32.421,0,64.843,0,97.264c0,64.118,0,128.236,0,192.354c0,46.095,0,92.188,0,138.283c0,2.906,0,5.813,0,8.719
			c0,9.673,15,9.673,15,0c0-32.422,0-64.843,0-97.265c0-64.117,0-128.235,0-192.353c0-46.095,0-92.189,0-138.283
			c0-2.906,0-5.813,0-8.719c0-4.088-3.411-7.5-7.5-7.5c-32.422,0-64.843,0-97.265,0c-64.117,0-128.235,0-192.353,0
			c-46.095,0-92.189,0-138.283,0c-2.906,0-5.813,0-8.719,0c-4.088,0-7.5,3.412-7.5,7.5c0,32.421,0,64.843,0,97.264
			c0,64.118,0,128.236,0,192.354c0,46.095,0,92.188,0,138.283c0,2.906,0,5.813,0,8.719c0,4.089,3.412,7.5,7.5,7.5
			c32.421,0,64.843,0,97.264,0c64.118,0,128.235,0,192.354,0c46.095,0,92.188,0,138.283,0c2.906,0,5.813,0,8.719,0
			C575.039,573.05,575.039,558.05,565.366,558.05z"/>
	</g>
</g>
<rect x="217.479" y="322.863" fill="none" width="402.818" height="222.026"/>
<text transform="matrix(1 0 0 1 217.479 373.2769)" fill="#FFFFFF" stroke="#000000" font-family="'Lobster-Regular'" font-size="72">CleanApp</text>
</svg>
